<?xml version="1.0" encoding="UTF-8" standalone="no"?>
<svg
   version="1.1"
   id="svg19"
   sodipodi:docname="floppy.svg"
   width="29"
   height="29"
   inkscape:version="1.3 (0e150ed, 2023-07-21)"
   xmlns:inkscape="http://www.inkscape.org/namespaces/inkscape"
   xmlns:sodipodi="http://sodipodi.sourceforge.net/DTD/sodipodi-0.dtd"
   xmlns="http://www.w3.org/2000/svg"
   xmlns:svg="http://www.w3.org/2000/svg">
  <defs
     id="defs19" />
  <sodipodi:namedview
     id="namedview19"
     pagecolor="#ffffff"
     bordercolor="#000000"
     borderopacity="0.25"
     inkscape:showpageshadow="2"
     inkscape:pageopacity="0.0"
     inkscape:pagecheckerboard="0"
     inkscape:deskcolor="#d1d1d1"
     inkscape:zoom="1.5733333"
     inkscape:cx="98.834746"
     inkscape:cy="24.152542"
     inkscape:window-width="1512"
     inkscape:window-height="945"
     inkscape:window-x="0"
     inkscape:window-y="37"
     inkscape:window-maximized="0"
     inkscape:current-layer="svg19" />
  <symbol
     id="floppy"
     fill="currentColor"
     stroke="currentColor"
     width="100%"
     height="100%"
     viewBox="0 0 29 28"
     style="display:inline">
    <path
       d="M 0.5,0 H 2.654 V 2.154 H 0.5 Z m 0,2.154 H 2.654 V 4.308 H 0.5 Z m 0,2.154 H 2.654 V 6.462 H 0.5 Z m 0,2.154 H 2.654 V 8.616 H 0.5 Z"
       id="path1" />
    <path
       d="m 0.5,8.615 h 2.154 v 2.154 H 0.5 Z m 0,2.154 h 2.154 v 2.154 H 0.5 Z m 0,2.154 h 2.154 v 2.154 H 0.5 Z m 0,2.154 h 2.154 v 2.154 H 0.5 Z m 0,2.154 h 2.154 v 2.154 H 0.5 Z m 0,2.154 h 2.154 v 2.154 H 0.5 Z"
       id="path2" />
    <path
       d="m 0.5,21.538 h 2.154 v 2.154 H 0.5 Z m 0,2.154 h 2.154 v 2.154 H 0.5 Z m 0,2.154 H 2.654 V 28 H 0.5 Z M 24.193,0 V 2.154 H 22.039 V 0 Z"
       id="path3" />
    <path
       d="M 22.04,0 V 2.154 H 19.885 V 0 Z M 19.884,0 V 2.154 H 17.73 V 0 Z M 17.73,0 V 2.154 H 15.576 V 0 Z"
       id="path4" />
    <path
       d="M 15.577,0 V 2.154 H 13.423 V 0 Z M 13.423,0 V 2.154 H 11.27 V 0 Z M 11.27,0 V 2.154 H 9.115 V 0 Z"
       id="path5" />
    <path
       d="M 9.116,0 V 2.154 H 6.962 V 0 Z M 6.96,0 V 2.154 H 4.808 V 0 Z M 4.807,0 V 2.154 H 2.653 V 0 Z M 26.346,2.154 V 4.308 H 24.192 V 2.154 Z M 6.96,4.308 V 6.462 H 4.808 V 4.308 Z M 6.961,2.154 V 4.308 H 4.807 V 2.154 Z M 6.96,6.462 V 8.616 H 4.808 V 6.462 Z M 22.039,4.308 V 6.462 H 19.885 V 4.308 Z M 22.04,2.154 V 4.308 H 19.885 V 2.154 Z M 22.039,6.462 V 8.616 H 19.885 V 6.462 Z M 17.73,4.307 V 6.461 H 15.576 V 4.307 Z"
       id="path6" />
    <path
       d="M 17.73,2.154 V 4.308 H 15.577 V 2.154 Z m 0,4.307 V 8.615 H 15.576 V 6.461 Z m 4.31,2.154 v 2.154 H 19.885 V 8.615 Z m -2.156,0 v 2.154 H 17.73 V 8.615 Z m -2.154,0 v 2.154 H 15.577 V 8.615 Z m -2.153,0 v 2.154 H 13.423 V 8.615 Z m -2.154,0 v 2.154 H 11.27 V 8.615 Z M 11.27,8.616 V 10.77 H 9.116 V 8.616 Z M 9.116,8.615 v 2.154 H 6.962 V 8.615 Z m -2.155,0 v 2.154 H 4.807 V 8.615 Z m 17.232,6.462 v 2.154 h -2.154 v -2.154 z m -2.154,0 v 2.154 h -2.154 v -2.154 z m -2.155,0 v 2.154 H 17.73 V 15.077 Z M 17.73,15.076 v 2.154 h -2.154 v -2.154 z"
       id="path7" />
    <path
       d="m 15.577,15.077 v 2.154 h -2.154 v -2.154 z m -2.154,0 v 2.154 h -2.154 v -2.154 z"
       id="path8" />
    <path
       d="m 11.27,15.077 v 2.154 H 9.114 v -2.154 z"
       id="path9" />
    <path
       d="m 9.116,15.077 v 2.154 H 6.962 v -2.154 z m -2.156,0 v 2.154 H 4.808 v -2.154 z m 17.232,2.154 v 2.154 h -2.154 v -2.154 z"
       id="path10" />
    <path
       d="m 6.96,17.23 v 2.155 H 4.808 V 17.23 Z m 17.232,2.155 v 2.154 h -2.154 v -2.154 z m -17.232,0 v 2.154 H 4.808 v -2.154 z m 17.233,2.154 v 2.154 h -2.154 v -2.154 z"
       id="path11" />
    <path
       d="m 6.961,21.538 v 2.154 H 4.807 v -2.154 z m 0,2.154 v 2.154 H 4.807 v -2.154 z m 17.232,0.001 v 2.154 H 22.04 v -2.154 z"
       id="path12" />
    <path
       d="M 26.346,25.846 V 28 h -2.154 v -2.154 z"
       id="path13" />
    <path
       d="M 24.193,25.846 V 28 h -2.154 v -2.154 z m -2.154,0 V 28 h -2.154 v -2.154 z m -2.155,0 V 28 H 17.73 V 25.846 Z M 17.73,25.845 V 28 h -2.154 v -2.154 z"
       id="path14" />
    <path
       d="M 15.577,25.846 V 28 h -2.154 v -2.154 z m -2.154,0 V 28 h -2.154 v -2.154 z"
       id="path15" />
    <path
       d="M 11.27,25.846 V 28 H 9.114 v -2.154 z"
       id="path16" />
    <path
       d="M 9.116,25.846 V 28 H 6.962 v -2.154 z m -2.156,0 V 28 H 4.808 v -2.154 z m -2.153,0 V 28 H 2.653 V 25.846 Z M 28.5,28 H 26.346 V 25.846 H 28.5 Z m 0,-2.154 H 26.346 V 23.692 H 28.5 Z"
       id="path17" />
    <path
       d="M 28.5,23.693 H 26.346 V 21.539 H 28.5 Z m 0,-2.154 H 26.346 V 19.385 H 28.5 Z m 0,-2.154 H 26.346 V 17.23 H 28.5 Z m 0,-2.155 H 26.346 V 15.076 H 28.5 Z"
       id="path18" />
    <path
       d="M 28.5,15.077 H 26.346 V 12.923 H 28.5 Z m 0,-2.154 H 26.346 V 10.77 H 28.5 Z m 0,-2.153 H 26.346 V 8.616 H 28.5 Z m 0,-2.155 H 26.346 V 6.461 H 28.5 Z m 0,-2.154 H 26.346 V 4.307 H 28.5 Z"
       id="path19" />
  </symbol>
</svg>
